# xmcd CD database file
#
# Track frame offsets:
#	150
#	21917
#	41915
#	58300
#	80720
#	99445
#	117375
#	136512
#	154740
#	181970
#	199040
#	214177
#	230980
#	250330
#	265855
#	282280
#	302772
#	316480
#	328500
#
# Disc length: 4626 seconds
#
# Revision: 0
# Processed by: cddbd v1.5.1PL0 Copyright (c) Steve Scherf et al.
# Submitted via: CDex 1.51
#
DISCID=1b121013
DTITLE=Lionel Richie - Truly The Love Songs
DYEAR=1997
DGENRE=Rhythmic Soul
TTITLE0=My Destiny
TTITLE1=Endless Love (with Diana Ross)
TTITLE2=Three Times A Lady
TTITLE3=Don't Wanna Lose You
TTITLE4=Hello
TTITLE5=Sail On
TTITLE6=Easy
TTITLE7=Say You, Say Me
TTITLE8=Do It To Me
TTITLE9=Penny Lover
TTITLE10=Truly
TTITLE11=Still
TTITLE12=Love Willl Conquer All
TTITLE13=Sweet Love
TTITLE14=Ballerina Girl
TTITLE15=Still In Love
TTITLE16=Oh No
TTITLE17=Just To Be Close To You
TTITLE18=Stuck On You
EXTD=YEAR: 1997
EXTT0=
EXTT1=
EXTT2=
EXTT3=
EXTT4=
EXTT5=
EXTT6=
EXTT7=
EXTT8=
EXTT9=
EXTT10=
EXTT11=
EXTT12=
EXTT13=
EXTT14=
EXTT15=
EXTT16=
EXTT17=
EXTT18=
PLAYORDER=
